<svg width="700" height="500" preserveAspectRatio="xMidYMid meet" aria-roledescription="xychart" role="graphics-document document" viewBox="0 0 700 500"  style="background-color: white" xmlns:xlink="http://www.w3.org/1999/xlink" xmlns="http://www.w3.org/2000/svg" id="my-svg"><style>#my-svg{font-family:"trebuchet ms",verdana,arial,sans-serif;font-size:16px;fill:#333;}#my-svg .error-icon{fill:#552222;}#my-svg .error-text{fill:#552222;stroke:#552222;}#my-svg .edge-thickness-normal{stroke-width:2px;}#my-svg .edge-thickness-thick{stroke-width:3.5px;}#my-svg .edge-pattern-solid{stroke-dasharray:0;}#my-svg .edge-pattern-dashed{stroke-dasharray:3;}#my-svg .edge-pattern-dotted{stroke-dasharray:2;}#my-svg .marker{fill:#333333;stroke:#333333;}#my-svg .marker.cross{stroke:#333333;}#my-svg svg{font-family:"trebuchet ms",verdana,arial,sans-serif;font-size:16px;}#my-svg :root{--mermaid-font-family:"trebuchet ms",verdana,arial,sans-serif;}</style><g/><g class="main"><rect fill="white" class="background" height="500" width="700"/><g class="chart-title"><text transform="translate(350, 21.75) rotate(0)" text-anchor="middle" dominant-baseline="middle" font-size="20" fill="#131300" y="0" x="0">Batch Size Trade-off</text></g><g class="plot"><g class="line-plot-0"><path stroke-width="2" stroke="#ECECFF" fill="none" d="M77.445,329.433L230.605,354.7L383.766,367.333L536.926,374.913L690.086,379.967"/></g><g class="line-plot-1"><path stroke-width="2" stroke="#8493A6" fill="none" d="M77.445,430.5L230.605,405.233L383.766,354.7L536.926,253.633L690.086,51.5"/></g></g><g class="bottom-axis"><g class="axis-line"><path stroke-width="2" stroke="#131300" fill="none" d="M 67.53125190734863,439.49999809265137 L 700,439.49999809265137"/></g><g class="label"><text transform="translate(77.44531440734863, 450.49999809265137) rotate(0)" text-anchor="middle" dominant-baseline="text-before-edge" font-size="14" fill="#131300" y="0" x="0">1</text><text transform="translate(154.02539229393005, 450.49999809265137) rotate(0)" text-anchor="middle" dominant-baseline="text-before-edge" font-size="14" fill="#131300" y="0" x="0">1.5</text><text transform="translate(230.60547018051147, 450.49999809265137) rotate(0)" text-anchor="middle" dominant-baseline="text-before-edge" font-size="14" fill="#131300" y="0" x="0">2</text><text transform="translate(307.1855480670929, 450.49999809265137) rotate(0)" text-anchor="middle" dominant-baseline="text-before-edge" font-size="14" fill="#131300" y="0" x="0">2.5</text><text transform="translate(383.7656259536743, 450.49999809265137) rotate(0)" text-anchor="middle" dominant-baseline="text-before-edge" font-size="14" fill="#131300" y="0" x="0">3</text><text transform="translate(460.34570384025574, 450.49999809265137) rotate(0)" text-anchor="middle" dominant-baseline="text-before-edge" font-size="14" fill="#131300" y="0" x="0">3.5</text><text transform="translate(536.9257817268372, 450.49999809265137) rotate(0)" text-anchor="middle" dominant-baseline="text-before-edge" font-size="14" fill="#131300" y="0" x="0">4</text><text transform="translate(613.5058596134186, 450.49999809265137) rotate(0)" text-anchor="middle" dominant-baseline="text-before-edge" font-size="14" fill="#131300" y="0" x="0">4.5</text><text transform="translate(690.0859375, 450.49999809265137) rotate(0)" text-anchor="middle" dominant-baseline="text-before-edge" font-size="14" fill="#131300" y="0" x="0">5</text></g><g class="ticks"><path stroke-width="2" stroke="#131300" fill="none" d="M 77.44531440734863,440.49999809265137 L 77.44531440734863,445.49999809265137"/><path stroke-width="2" stroke="#131300" fill="none" d="M 154.02539229393005,440.49999809265137 L 154.02539229393005,445.49999809265137"/><path stroke-width="2" stroke="#131300" fill="none" d="M 230.60547018051147,440.49999809265137 L 230.60547018051147,445.49999809265137"/><path stroke-width="2" stroke="#131300" fill="none" d="M 307.1855480670929,440.49999809265137 L 307.1855480670929,445.49999809265137"/><path stroke-width="2" stroke="#131300" fill="none" d="M 383.7656259536743,440.49999809265137 L 383.7656259536743,445.49999809265137"/><path stroke-width="2" stroke="#131300" fill="none" d="M 460.34570384025574,440.49999809265137 L 460.34570384025574,445.49999809265137"/><path stroke-width="2" stroke="#131300" fill="none" d="M 536.9257817268372,440.49999809265137 L 536.9257817268372,445.49999809265137"/><path stroke-width="2" stroke="#131300" fill="none" d="M 613.5058596134186,440.49999809265137 L 613.5058596134186,445.49999809265137"/><path stroke-width="2" stroke="#131300" fill="none" d="M 690.0859375,440.49999809265137 L 690.0859375,445.49999809265137"/></g><g class="title"><text transform="translate(383.7656259536743, 476.49999809265137) rotate(0)" text-anchor="middle" dominant-baseline="text-before-edge" font-size="16" fill="#131300" y="0" x="0">Batch Size</text></g></g><g class="left-axis"><g class="axisl-line"><path stroke-width="2" stroke="#131300" fill="none" d="M 66.53125190734863,43.5 L 66.53125190734863,438.49999809265137"/></g><g class="label"><text transform="translate(55.53125190734863, 51.5) rotate(0)" text-anchor="end" dominant-baseline="middle" font-size="14" fill="#131300" y="0" x="0">160</text><text transform="translate(55.53125190734863, 102.03333307902017) rotate(0)" text-anchor="end" dominant-baseline="middle" font-size="14" fill="#131300" y="0" x="0">140</text><text transform="translate(55.53125190734863, 152.5666661580404) rotate(0)" text-anchor="end" dominant-baseline="middle" font-size="14" fill="#131300" y="0" x="0">120</text><text transform="translate(55.53125190734863, 203.09999923706056) rotate(0)" text-anchor="end" dominant-baseline="middle" font-size="14" fill="#131300" y="0" x="0">100</text><text transform="translate(55.53125190734863, 253.63333231608073) rotate(0)" text-anchor="end" dominant-baseline="middle" font-size="14" fill="#131300" y="0" x="0">80</text><text transform="translate(55.53125190734863, 304.16666539510095) rotate(0)" text-anchor="end" dominant-baseline="middle" font-size="14" fill="#131300" y="0" x="0">60</text><text transform="translate(55.53125190734863, 354.6999984741211) rotate(0)" text-anchor="end" dominant-baseline="middle" font-size="14" fill="#131300" y="0" x="0">40</text><text transform="translate(55.53125190734863, 405.2333315531413) rotate(0)" text-anchor="end" dominant-baseline="middle" font-size="14" fill="#131300" y="0" x="0">20</text></g><g class="ticks"><path stroke-width="2" stroke="#131300" fill="none" d="M 65.53125190734863,51.5 L 60.53125190734863,51.5"/><path stroke-width="2" stroke="#131300" fill="none" d="M 65.53125190734863,102.03333307902017 L 60.53125190734863,102.03333307902017"/><path stroke-width="2" stroke="#131300" fill="none" d="M 65.53125190734863,152.5666661580404 L 60.53125190734863,152.5666661580404"/><path stroke-width="2" stroke="#131300" fill="none" d="M 65.53125190734863,203.09999923706056 L 60.53125190734863,203.09999923706056"/><path stroke-width="2" stroke="#131300" fill="none" d="M 65.53125190734863,253.63333231608073 L 60.53125190734863,253.63333231608073"/><path stroke-width="2" stroke="#131300" fill="none" d="M 65.53125190734863,304.16666539510095 L 60.53125190734863,304.16666539510095"/><path stroke-width="2" stroke="#131300" fill="none" d="M 65.53125190734863,354.6999984741211 L 60.53125190734863,354.6999984741211"/><path stroke-width="2" stroke="#131300" fill="none" d="M 65.53125190734863,405.2333315531413 L 60.53125190734863,405.2333315531413"/></g><g class="title"><text transform="translate(5, 240.99999904632568) rotate(270)" text-anchor="middle" dominant-baseline="text-before-edge" font-size="16" fill="#131300" y="0" x="0">Metric</text></g></g></g><g class="mermaid-tmp-group"/></svg>